<?xml version="1.0" encoding="utf-8"?>
<svg viewBox="0 0 200 50" xmlns="http://www.w3.org/2000/svg">
  <g>
    <g>
      <path d="M48.7,11.4c-0.9,0-1.6-0.3-2.2-0.9c-0.6-0.6-0.9-1.3-0.9-2.2c0-0.9,0.3-1.6,0.9-2.2 c0.6-0.6,1.3-0.9,2.2-0.9c0.9,0,1.6,0.3,2.2,0.9c0.6,0.6,0.9,1.3,0.9,2.2c0,0.9-0.3,1.6-0.9,2.2C50.2,11.1,49.5,11.4,48.7,11.4z M45.6,14.5h5.9v24.3h-5.9V14.5z" style="fill: rgb(50, 50, 50);"/>
      <path d="M64.2,39.2c-1.3-0.1-2.5-0.3-3.7-0.8c-1.2-0.4-2.2-1-3.1-1.8c-0.9-0.7-1.6-1.6-2.1-2.7l5-2.1 c0.2,0.3,0.5,0.7,0.9,1c0.4,0.4,1,0.7,1.6,0.9c0.6,0.2,1.3,0.4,2,0.4c0.6,0,1.2-0.1,1.8-0.3c0.6-0.2,1-0.4,1.4-0.8 c0.3-0.4,0.5-0.8,0.5-1.4c0-0.6-0.2-1.1-0.6-1.4c-0.4-0.3-0.9-0.6-1.6-0.8c-0.6-0.2-1.2-0.3-1.8-0.5c-1.5-0.3-3-0.8-4.3-1.4 c-1.3-0.6-2.4-1.5-3.2-2.5c-0.8-1-1.2-2.3-1.2-3.7c0-1.6,0.4-3,1.3-4.1c0.8-1.2,2-2.1,3.3-2.7c1.4-0.6,2.8-0.9,4.4-0.9 c1.9,0,3.7,0.4,5.3,1.2c1.6,0.8,2.9,1.9,3.8,3.4L69.3,21c-0.2-0.4-0.5-0.7-0.9-1.1c-0.4-0.3-0.9-0.6-1.4-0.8 c-0.5-0.2-1.1-0.3-1.6-0.4c-0.7,0-1.4,0-2,0.2c-0.6,0.2-1.1,0.4-1.4,0.8c-0.4,0.4-0.5,0.9-0.5,1.6c0,0.6,0.2,1.1,0.7,1.4 c0.5,0.3,1.1,0.5,1.8,0.7c0.7,0.2,1.3,0.3,2,0.5c1.4,0.5,2.8,1,4,1.7c1.3,0.7,2.3,1.5,3,2.5c0.8,1,1.1,2.2,1.1,3.5 c0,1.6-0.5,2.9-1.4,4.1c-0.9,1.2-2.1,2.1-3.6,2.7C67.4,39.1,65.9,39.3,64.2,39.2z" style="fill: rgb(50, 50, 50);"/>
      <path d="M92.8,31.4l5.3,2.9c-1.1,1.5-2.5,2.7-4.2,3.7c-1.7,0.9-3.5,1.4-5.5,1.4c-2.2,0-4.3-0.6-6.1-1.7 C80.5,36.5,79,35,77.9,33c-1.1-1.9-1.6-4.1-1.6-6.4c0-1.8,0.3-3.4,0.9-5c0.6-1.5,1.5-2.9,2.6-4.1c1.1-1.2,2.4-2.1,3.9-2.8 c1.5-0.7,3-1,4.7-1c2,0,3.8,0.5,5.5,1.4c1.7,0.9,3.1,2.2,4.2,3.7l-5.3,2.9c-0.6-0.6-1.2-1.1-2-1.5c-0.8-0.4-1.6-0.5-2.4-0.5 c-1.2,0-2.2,0.3-3.2,1c-0.9,0.6-1.7,1.5-2.2,2.5c-0.6,1-0.8,2.2-0.8,3.4c0,1.2,0.3,2.3,0.8,3.4c0.6,1,1.3,1.9,2.2,2.5 c0.9,0.6,2,0.9,3.2,0.9c0.8,0,1.6-0.2,2.4-0.5C91.6,32.6,92.2,32.1,92.8,31.4z" style="fill: rgb(50, 50, 50);"/>
      <path d="M112.4,39.4c-2.2,0-4.3-0.6-6.1-1.7c-1.8-1.1-3.3-2.7-4.4-4.6c-1.1-1.9-1.6-4.1-1.6-6.4 c0-1.8,0.3-3.4,0.9-5c0.6-1.5,1.5-2.9,2.6-4.1c1.1-1.2,2.4-2.1,3.9-2.8c1.5-0.7,3-1,4.7-1c2.2,0,4.3,0.6,6.1,1.7 c1.8,1.1,3.3,2.7,4.4,4.6c1.1,1.9,1.6,4.1,1.6,6.5c0,1.8-0.3,3.4-0.9,5c-0.6,1.5-1.5,2.9-2.6,4.1c-1.1,1.2-2.4,2.1-3.9,2.8 C115.7,39.1,114.1,39.4,112.4,39.4z M112.4,33.5c1.2,0,2.2-0.3,3.2-0.9c0.9-0.6,1.7-1.5,2.2-2.5c0.5-1,0.8-2.2,0.8-3.4 c0-1.3-0.3-2.4-0.8-3.5c-0.6-1-1.3-1.9-2.3-2.5c-0.9-0.6-2-0.9-3.1-0.9c-1.2,0-2.2,0.3-3.2,0.9c-0.9,0.6-1.7,1.5-2.2,2.5 c-0.6,1.1-0.8,2.2-0.8,3.4c0,1.3,0.3,2.4,0.8,3.5c0.6,1,1.3,1.9,2.3,2.5C110.3,33.2,111.3,33.5,112.4,33.5z" style="fill: rgb(50, 50, 50);"/>
      <path d="M126.8,29.8V14.5h5.9v13.7c0,1,0.2,1.8,0.7,2.6c0.5,0.8,1.1,1.4,1.9,1.9c0.8,0.5,1.6,0.7,2.6,0.7 c1,0,1.8-0.2,2.6-0.7c0.8-0.5,1.4-1.1,1.9-1.9c0.5-0.8,0.7-1.7,0.7-2.6V14.5h5.9l0,24.3h-5.9l0-2.2c-0.8,0.9-1.8,1.6-3,2.1 c-1.1,0.5-2.4,0.8-3.7,0.8c-1.8,0-3.4-0.4-4.8-1.3c-1.5-0.9-2.6-2-3.5-3.5C127.3,33.2,126.8,31.6,126.8,29.8z" style="fill: rgb(50, 50, 50);"/>
      <path d="M176.1,23.4v15.3h-5.9V25c0-1-0.2-1.8-0.7-2.6c-0.5-0.8-1.1-1.4-1.9-1.9c-0.8-0.5-1.7-0.7-2.6-0.7 c-1,0-1.8,0.2-2.6,0.7c-0.8,0.5-1.4,1.1-1.9,1.9c-0.5,0.8-0.7,1.7-0.7,2.6v13.8h-5.9l0-24.3h5.9l0,2.2c0.8-0.9,1.8-1.6,3-2.1 c1.1-0.5,2.4-0.8,3.7-0.8c1.8,0,3.4,0.4,4.8,1.3c1.5,0.9,2.6,2,3.5,3.5C175.7,20,176.1,21.6,176.1,23.4z" style="fill: rgb(50, 50, 50);"/>
      <path d="M194,20.4h-4.7v18.3h-5.9V20.4h-3.6v-5.9h3.6V6.9l5.9-2.5v10.1h4.7V20.4z" style="fill: rgb(50, 50, 50);"/>
    </g>
    <g>
      <path d="M145.9,48.8c-0.5,0-0.9-0.1-1.3-0.3c-0.4-0.2-0.7-0.4-1-0.8c-0.3-0.3-0.5-0.7-0.6-1.2 c-0.1-0.4-0.1-0.9-0.1-1.4c0.1-0.5,0.2-1,0.5-1.4c0.2-0.4,0.5-0.8,0.9-1.2c0.4-0.3,0.8-0.6,1.2-0.8c0.4-0.2,0.9-0.3,1.4-0.3 c0.6,0,1.1,0.1,1.5,0.4c0.4,0.3,0.8,0.6,1,1l-1,0.5c-0.2-0.3-0.4-0.5-0.7-0.7c-0.3-0.2-0.6-0.2-1-0.2c-0.3,0-0.7,0.1-1,0.2 c-0.3,0.1-0.6,0.3-0.8,0.6c-0.3,0.2-0.5,0.5-0.6,0.8c-0.2,0.3-0.3,0.6-0.3,1c-0.1,0.4,0,0.7,0,1c0.1,0.3,0.2,0.6,0.4,0.8 c0.2,0.2,0.4,0.4,0.7,0.6c0.3,0.1,0.6,0.2,0.9,0.2c0.4,0,0.7-0.1,1.1-0.2c0.3-0.2,0.6-0.4,0.9-0.7l0.9,0.5c-0.4,0.4-0.8,0.8-1.3,1 C147,48.7,146.4,48.8,145.9,48.8z" style="fill: rgb(255, 255, 255);"/>
      <path d="M152.8,48.8c-0.5,0-0.9-0.1-1.3-0.3c-0.4-0.2-0.7-0.4-1-0.8c-0.3-0.3-0.5-0.7-0.6-1.2 c-0.1-0.4-0.1-0.9-0.1-1.4c0.1-0.5,0.2-1,0.5-1.4c0.2-0.4,0.5-0.8,0.9-1.2c0.4-0.3,0.8-0.6,1.2-0.8c0.4-0.2,0.9-0.3,1.4-0.3 c0.5,0,0.9,0.1,1.3,0.3c0.4,0.2,0.7,0.4,1,0.8c0.3,0.3,0.5,0.7,0.6,1.2c0.1,0.4,0.1,0.9,0.1,1.4c-0.1,0.5-0.2,1-0.5,1.4 c-0.2,0.4-0.5,0.8-0.9,1.2c-0.4,0.3-0.8,0.6-1.2,0.8C153.7,48.7,153.2,48.8,152.8,48.8z M152.9,47.8c0.3,0,0.7-0.1,1-0.2 c0.3-0.1,0.6-0.3,0.8-0.6c0.3-0.2,0.5-0.5,0.6-0.8c0.2-0.3,0.3-0.6,0.3-1c0.1-0.4,0-0.7,0-1c-0.1-0.3-0.2-0.6-0.4-0.8 c-0.2-0.2-0.4-0.4-0.7-0.6c-0.3-0.1-0.6-0.2-0.9-0.2s-0.7,0.1-1,0.2c-0.3,0.1-0.6,0.3-0.8,0.6c-0.3,0.2-0.5,0.5-0.6,0.8 c-0.2,0.3-0.3,0.6-0.3,1c-0.1,0.4,0,0.7,0,1c0.1,0.3,0.2,0.6,0.4,0.8c0.2,0.2,0.4,0.4,0.7,0.6C152.3,47.7,152.6,47.8,152.9,47.8z" style="fill: rgb(255, 255, 255);"/>
      <path d="M157.2,48.7l1-7h2.3c0.5,0,0.9,0.1,1.3,0.3c0.4,0.2,0.7,0.4,1,0.8c0.3,0.3,0.5,0.7,0.6,1.1 c0.1,0.4,0.1,0.9,0.1,1.4c-0.1,0.5-0.2,0.9-0.5,1.3c-0.2,0.4-0.5,0.8-0.9,1.1c-0.4,0.3-0.8,0.6-1.2,0.8c-0.4,0.2-0.9,0.3-1.4,0.3 H157.2z M158.3,47.7h1.3c0.3,0,0.7-0.1,1-0.2c0.3-0.1,0.6-0.3,0.9-0.5c0.3-0.2,0.5-0.5,0.6-0.8c0.2-0.3,0.3-0.6,0.3-0.9 c0-0.3,0-0.7-0.1-0.9c-0.1-0.3-0.2-0.6-0.4-0.8c-0.2-0.2-0.4-0.4-0.7-0.5c-0.3-0.1-0.6-0.2-0.9-0.2H159L158.3,47.7z" style="fill: rgb(255, 255, 255);"/>
      <path d="M163.8,48.7l1-7h4.3l-0.1,1h-3.3l-0.2,1.7h2.6l-0.1,1h-2.7l-0.3,2.2h3.3l-0.1,1H163.8z" style="fill: rgb(255, 255, 255);"/>
      <path d="M171.4,48.7l0.1-0.9c0.3-0.2,0.6-0.4,0.9-0.7c0.3-0.3,0.7-0.5,1-0.8c0.4-0.3,0.7-0.6,1-0.9 c0.3-0.3,0.6-0.6,0.8-0.8c0.2-0.3,0.3-0.5,0.3-0.7c0-0.2,0-0.4-0.1-0.6c-0.1-0.2-0.2-0.3-0.4-0.4c-0.2-0.1-0.4-0.2-0.6-0.2 c-0.2,0-0.4,0.1-0.6,0.2c-0.2,0.1-0.4,0.3-0.5,0.4c-0.1,0.2-0.2,0.4-0.2,0.6h-1c0.1-0.4,0.2-0.8,0.5-1.1c0.3-0.3,0.6-0.6,0.9-0.8 c0.4-0.2,0.8-0.3,1.2-0.3c0.4,0,0.8,0.1,1.1,0.3c0.3,0.2,0.5,0.5,0.7,0.8c0.2,0.3,0.2,0.7,0.1,1.1c0,0.2-0.1,0.5-0.2,0.7 c-0.1,0.2-0.3,0.5-0.5,0.8c-0.2,0.3-0.4,0.5-0.7,0.8c-0.3,0.3-0.5,0.5-0.8,0.8c-0.3,0.3-0.6,0.5-0.9,0.8h2.7l-0.1,1H171.4z" style="fill: rgb(255, 255, 255);"/>
      <path d="M179.3,48.8c-0.4,0-0.8-0.1-1.1-0.3c-0.3-0.2-0.6-0.4-0.7-0.8c-0.2-0.3-0.3-0.7-0.4-1.2 c-0.1-0.4-0.1-0.9,0-1.4c0.1-0.5,0.2-1,0.4-1.4c0.2-0.4,0.4-0.8,0.7-1.2c0.3-0.3,0.6-0.6,1-0.8c0.4-0.2,0.7-0.3,1.2-0.3 c0.4,0,0.8,0.1,1.1,0.3c0.3,0.2,0.6,0.4,0.7,0.8c0.2,0.3,0.3,0.7,0.4,1.2c0.1,0.4,0.1,0.9,0,1.4c-0.1,0.5-0.2,1-0.4,1.4 c-0.2,0.4-0.4,0.8-0.7,1.2c-0.3,0.3-0.6,0.6-1,0.8C180.1,48.7,179.7,48.8,179.3,48.8z M179.4,47.8c0.4,0,0.7-0.1,1-0.4 c0.3-0.2,0.5-0.6,0.7-0.9c0.2-0.4,0.3-0.8,0.4-1.3c0.1-0.5,0.1-0.9,0-1.3c-0.1-0.4-0.2-0.7-0.5-0.9c-0.2-0.2-0.5-0.3-0.9-0.3 c-0.3,0-0.6,0.1-0.8,0.2c-0.2,0.1-0.4,0.3-0.6,0.6c-0.2,0.2-0.3,0.5-0.4,0.8c-0.1,0.3-0.2,0.6-0.2,1c-0.1,0.5-0.1,0.9,0,1.3 c0.1,0.4,0.2,0.7,0.4,0.9C178.8,47.7,179.1,47.8,179.4,47.8z" style="fill: rgb(255, 255, 255);"/>
      <path d="M182.7,48.7l0.1-0.9c0.3-0.2,0.6-0.4,0.9-0.7c0.3-0.3,0.7-0.5,1-0.8c0.4-0.3,0.7-0.6,1-0.9 c0.3-0.3,0.6-0.6,0.8-0.8c0.2-0.3,0.3-0.5,0.3-0.7c0-0.2,0-0.4-0.1-0.6c-0.1-0.2-0.2-0.3-0.4-0.4c-0.2-0.1-0.4-0.2-0.6-0.2 c-0.2,0-0.4,0.1-0.6,0.2c-0.2,0.1-0.4,0.3-0.5,0.4c-0.1,0.2-0.2,0.4-0.2,0.6h-1c0.1-0.4,0.2-0.8,0.5-1.1c0.3-0.3,0.6-0.6,0.9-0.8 c0.4-0.2,0.8-0.3,1.2-0.3c0.4,0,0.8,0.1,1.1,0.3c0.3,0.2,0.5,0.5,0.7,0.8c0.2,0.3,0.2,0.7,0.1,1.1c0,0.2-0.1,0.5-0.2,0.7 c-0.1,0.2-0.3,0.5-0.5,0.8c-0.2,0.3-0.4,0.5-0.7,0.8c-0.3,0.3-0.5,0.5-0.8,0.8c-0.3,0.3-0.6,0.5-0.9,0.8h2.7l-0.1,1H182.7z" style="fill: rgb(255, 255, 255);"/>
      <path d="M190.4,48.8c-0.4,0-0.8-0.1-1.1-0.3c-0.3-0.2-0.5-0.5-0.7-0.8c-0.1-0.3-0.2-0.7-0.1-1.1h1 c0,0.2,0,0.4,0.1,0.6c0.1,0.2,0.2,0.3,0.4,0.4c0.2,0.1,0.4,0.2,0.6,0.2c0.2,0,0.4-0.1,0.6-0.2c0.2-0.1,0.4-0.2,0.5-0.4 c0.1-0.2,0.2-0.4,0.2-0.6c0-0.3,0-0.5-0.1-0.7c-0.1-0.2-0.3-0.3-0.5-0.4c-0.2-0.1-0.5-0.1-0.8-0.1l0.1-0.8c0.4,0,0.8-0.1,1.1-0.3 c0.3-0.2,0.5-0.4,0.5-0.8c0-0.2,0-0.3-0.1-0.5c-0.1-0.1-0.2-0.3-0.3-0.4c-0.1-0.1-0.3-0.1-0.5-0.1c-0.2,0-0.4,0-0.5,0.1 c-0.2,0.1-0.3,0.2-0.5,0.4c-0.1,0.1-0.2,0.3-0.2,0.5h-1c0-0.3,0.1-0.5,0.3-0.8c0.1-0.2,0.3-0.5,0.6-0.6c0.2-0.2,0.5-0.3,0.7-0.4 c0.3-0.1,0.5-0.2,0.8-0.2c0.4,0,0.7,0.1,1,0.3c0.3,0.2,0.5,0.4,0.7,0.7c0.1,0.3,0.2,0.6,0.1,1c0,0.3-0.2,0.6-0.3,0.8 c-0.2,0.3-0.4,0.4-0.7,0.6c0.2,0.1,0.4,0.2,0.5,0.4c0.1,0.2,0.2,0.4,0.3,0.6c0,0.2,0.1,0.4,0,0.7c-0.1,0.4-0.2,0.8-0.5,1.1 c-0.3,0.3-0.6,0.6-0.9,0.8C191.2,48.7,190.8,48.8,190.4,48.8z" style="fill: rgb(255, 255, 255);"/>
    </g>
    <g>
      <path d="M28.9,3.2c0.1-0.1,0.3-0.3,0.5-0.4l-1.7-1.7l-7.5,7.6l7,7l7.6-7.6l-1.7-1.7C33,6.7,32.9,6.9,32.7,7 c-1.1,1.1-2.8,1.1-3.8,0S27.9,4.3,28.9,3.2z" style="fill: rgb(50, 50, 50);"/>
      <g>
        <path d="M40.3,15.2c-0.9-2-2.1-3.8-3.7-5.4c0,0-0.1-0.1-0.1-0.1c0,0.1-0.1,0.1-0.1,0.2l-4,4c0,0,0.1,0.1,0.1,0.1 c1,1,1.8,2.2,2.4,3.5c0.6,1.3,0.9,2.8,0.9,4.3c0,1.5-0.3,3-0.9,4.3c-0.6,1.3-1.4,2.5-2.4,3.5c-1,1-2.2,1.8-3.5,2.4 c-1.3,0.6-2.8,0.9-4.3,0.9h-5.3V18.2l-5.8,0.1c0,0-0.1,0-0.1,0v20.4h11.3c2.3,0,4.5-0.4,6.6-1.3c2-0.9,3.8-2.1,5.4-3.7 c1.6-1.6,2.8-3.4,3.7-5.4c0.9-2,1.3-4.2,1.3-6.6C41.6,19.4,41.2,17.2,40.3,15.2z" style="fill: rgb(50, 50, 50);"/>
      </g>
      <path d="M11.5,3.4c0.2,0.1,0.3,0.2,0.5,0.4C13,4.8,13,6.5,12,7.6s-2.8,1.1-3.8,0C8,7.4,7.9,7.2,7.8,7.1L6.1,8.7 c-0.1-0.1,7.4,7.4,7.4,7.4l13.8-0.3L13.1,1.7L11.5,3.4z" style="fill: rgb(255, 255, 255);"/>
    </g>
  </g>
</svg>