<?xml version="1.0" encoding="utf-8"?>
<svg viewBox="0 0 500 400" xmlns="http://www.w3.org/2000/svg">
  <defs>
    <style>.S{fill:#031e49}.T{fill:#fff}.U{fill:#d9dee8}</style>
  </defs>
  <path d="M89 364.8s-61-43.5-78.6-117.4c-17.6-74 9.2-163.6 60.1-208.9 50.8-45.3 142.4-14.8 183.1 23.1l40.7 37.9s38.8 21.3 89.7 19.4c50.8-1.8 96.1 67.5 108.2 122 12 54.5-16.6 126.7-16.6 126.7L89 364.8z" fill="#f6f7fa"/>
  <path d="M61.2 375.9s-42.5-23.1-53.6-76.7 37-102.6 41.6-129.4-5.5-60.1 37-86 118.3-16.6 147-23.1S295.1 9.9 352.5 20C409.8 30.1 465.2 60.6 468 127.2s-18.5 68.4 2.8 104.5 29.6 61 19.4 98-31.4 47.2-31.4 47.2l-397.6-1h0z" opacity=".5" class="U"/>
  <g fill="#578fff">
    <path d="M454.9 233.1h-51c-2.7 0-5-2.2-5-4.9v-.1V202c0-2.7 2.2-5 4.9-5h.1 51c2.7 0 5 2.2 5 4.9v.1 26.1c0 2.8-2.3 5-5 5z" style="fill: rgb(221, 208, 200);"/>
    <path d="M429.3 247.2l7.9-18.7h-15.8l7.9 18.7z" style="fill: rgb(221, 208, 200);"/>
  </g>
  <path d="M429.2 208.9h14.2v2.1l7-4-7-4.1v2.1h-14.2v3.9z" class="S" style="fill: rgb(50, 50, 50);"/>
  <path d="M450.4 217.1h-14.3V215l-6.9 4.1 6.9 4V221h14.3v-3.9z" class="T"/>
  <path d="M420.4 220.8l-.7.2s-2.1-2.4-3.2-5-1.1-5.8-1.1-5.8l.5-.2-3-7.2c-.5.4-1.1 1-1.5 1.7-1.7 2.9-1.5 7.3.2 11.6s3.6 8.2 6.9 10.6c2 1.4 3.7 1.7 5 1.5l-3.1-7.4h0zm2.2-.9l-.9.3 3.1 7.4c.3-.1.7-.3.9-.4.8-.4 1.1-1.4.8-2.2l-1.6-4.1c-.4-.8-1.4-1.3-2.3-1zm-7.4-18.5c-.4.1-.8.3-1.2.6l3.1 7.4 1-.4c.9-.4 1.3-1.4 1-2.3l-1.6-4.2c-.4-.9-1.4-1.4-2.3-1.1z" class="S" style="fill: rgb(50, 50, 50);"/>
  <path d="M135.6 351.4v-83.2s-.9-22.4 10.9-28.9 61.5-3 61.5-3v115.1h-72.4 0z" style="fill: rgb(50, 50, 50);"/>
  <path d="M223.5 158.4s-3 25.2-4.2 27.3l-1.2 2.1-5.8 3.9s11.1 15.7 24.7 18.3 12.5-5.5 12.5-5.5l-2.1-4.4 2.8-24c.1-.1-24.6-11.5-26.7-17.7h0z" style="fill: rgb(248, 203, 175);"/>
  <path d="M205.2 193.8l9-3.9s5.8 9.5 19.2 15 13.6 2.3 14.3 0-.2-4.9-.2-4.9l1-8.1 5.4 1.8 18.6 150.5-47.8 2.3-19.5-152.7z" class="T"/>
  <path d="M249.4 192.1s3.2 7.5 6.2 25c3 17.6 5.8 47.2 6.5 67.5s1.2 66.8 1.2 66.8h60.3c.7 0 4.9-22.9 4.9-22.9s-26.3-22.6-27.7-26.3c-.9-2.5-.5-48.2-4.4-69.2s-9-25.3-19.6-30.5c-11.1-5.4-27.4-10.4-27.4-10.4h0z" class="S" style="fill: rgb(221, 208, 200);"/>
  <path d="M280.8 324.9c-.3 0-.6-.2-.6-.6l-.6-47.8-.6-47.9c0-.3.2-.6.6-.6s.6.2.6.6l.6 47.8.6 47.9c0 .4-.3.6-.6.6z" style=""/>
  <path d="M160.6 319.3l-.5 32.1h70.3s3-27.3 1.8-29.8c-1.1-2.6-71.6-2.3-71.6-2.3h0z" class="S" style="fill: rgb(20, 20, 20);"/>
  <path d="M238.8 185c2.9 2.3 6.8 4.2 9.8 5.3l1.6-14.3s-18.6-8.5-24.9-14.8c1.4 7.1 4.7 16.6 13.5 23.8h0z" style="fill: rgb(248, 203, 175);"/>
  <path d="M272 111.5s4.9 8.3 5.8 18.5 0 36.3-8.3 47.4-25.7 7.9-33.5 1.2c-7.2-6.2-14.3-12.9-16.2-26.3-1.8-13.4 3.9-38.8 20.3-44.1 16.4-5.5 31.9 3.3 31.9 3.3zm20.9 225.4h-2.1-.9c-1.2 0-2.6-.1-4.1-.1h-1l-3.9.1h0-.9-.4c-.7-.1-.8-.3-1.5-.6-.9-.4-13.6-3.3-24-3.2-10.3 0-19.6.7-21.1-.5-1.5-1.3-2.4-14.3 6.4-15.1l10.8 4.1s24.7-2.9 33.8 3.8c9.2 6.5 8.9 11.5 8.9 11.5h0z" style="fill: rgb(248, 203, 175);"/>
  <g class="S">
    <path d="M280.9 336.7h-.9c-.2-.4-.7-1-.9-1.3-2.8-2.8-9.5-4.7-12-5.3-.2-.1-.4-.3-.3-.5 0-.2.3-.4.5-.3 3.6.9 11.1 3.1 13.3 6.7 0 .2.2.5.3.7h0zm4.9 0h-1c-3-5.6-8-7.2-14.2-9.1l-.4-.1a.55.55 0 0 1-.3-.5.55.55 0 0 1 .5-.3l.4.1c6.5 2 11.8 3.7 15 9.9zm5 .1h-.9c-1.8-3.9-8-10.4-16.1-11.9-.2 0-.4-.3-.3-.5s.3-.4.5-.3c8.3 1.5 15 8.4 16.8 12.7h0zm-65.5-196.1s5.1-2.4 8.7-9.2 3.1-12.9 3.1-12.9 6.5-1 16.2 1.8c9.7 2.9 21.3 6.8 31 1.3s9.7-14.4 5-18.1c-5.3-4.1-15.8-1.6-15.8-1.6s4-3.9 1.8-6.2-10.2.7-10.2.7-9.7-7.7-28.1-6.8-27.2 13.8-28.2 28.1 4.2 28.7 4.2 28.7l12.3-5.8h0zm37.3 3.5c-1 2.6-1 5.5-1.3 8.3-.2 2.1-.6 4.6 1.3 6 .9.7 5.3 2.5 3.1 4-.9.6-2.3.4-3.3.4-.7 0-1.4-.1-2-.1-.7-.1-1.4-.3-2.2-.3-.4 0-.6.6-.2.8 1.2.7 2.9 1 4.2 1 1.4.1 2.3 0 3.5-.6.8-.4 1.5-.9 1.6-1.8.1-1-.6-1.9-1.4-2.5-.9-.6-1.9-.9-2.8-1.6-1.2-.9-1.1-2.4-1-3.7.2-3.3 1-6.5 1.3-9.8.1-.5-.6-.5-.8-.1h0 0z" style="fill: rgb(0, 0, 0);"/>
    <path d="M272.1 151.9c-.3 1.9-1.8 3.3-3.2 3.1s-2.3-2-1.9-4c.3-1.9 1.8-3.3 3.2-3.1 1.3.2 2.2 2 1.9 4zm-17.7-1.6c-.3 2.1-1.8 3.6-3.3 3.4s-2.5-2.1-2.2-4.2 1.8-3.6 3.3-3.4 2.5 2.1 2.2 4.2zm13.5-6.5c1.1.2 2.2 0 3.3.1.3 0 .5.1.8.1.2 0-.3-.1-.1 0h.2c.1 0 .3.1.4.1.2.1.5.1.7.2.2 0 .4.1.7.1h.4-.2.4c.6-.1 1-.9.8-1.5-.1-.2-.1-.3-.2-.5 0-.1-.1-.1-.1-.2l.1.1c0-.1-.1-.1-.1-.2-.1-.1-.1-.2-.2-.2-.1-.1-.2-.1-.3-.2-.3-.2-.7-.3-1-.4-.6-.2-1.3-.3-2-.3s-1.3.1-2 .2c-.6.1-1.2.3-1.7.6-.4.3-.6.6-.5 1.1-.1.4.2.9.6.9h0 0z" style="fill: rgb(50, 50, 50);"/>
    <path d="M255.6 140.7c-.1-.1-.3-.2-.5-.2-.1-.1-.5-.2-.2-.1-.1-.1-.2-.1-.3-.2-.4-.2-.9-.4-1.4-.5-1.1-.3-2.2-.3-3.2-.2-1.2.1-2.2.4-3.2 1-.1.1-.3.2-.4.3s-.2.2-.2.3c0 0 0-.1.1-.1-.3.2-.5.6-.5.9 0 .4.2.7.5.8.4.2.7.1 1.1 0h-.6c.3.1.5.1.9 0 0 0 .3-.1.1 0-.2 0 .3 0 .4 0h0 .2c.2 0 .3 0 .5-.1.8-.1 1.5-.1 2.3-.1h2.1.9 0 .2c.1 0 .3.1.4.1.5.2 1.1-.2 1.3-.6s0-1-.5-1.3h0 0zm5.5 32.2c1.1-2.1 3-3.7 5.2-4.7-1.9-.2-11.1-1-13.4.3-2.6 1.5.5 7.4 5.8 7.7.6 0 1.1 0 1.6-.1.1-1.2.3-2.2.8-3.2z" style="fill: rgb(50, 50, 50);"/>
  </g>
  <path d="M218.9 160.5s.9 3.6 6.2 7.7c5.3 4.2 13 7.2 13 7.2l.6-2.7s-8-3.5-11.7-7.3-4.2-5.9-4.2-5.9l-3.9 1h0z" style="fill: rgb(255, 255, 255);"/>
  <path d="M239.7 170.7c4.3-.2 6.7 3.2 7 5.4s-1.8 4.6-6.6 2.5c-6-2.7-4.7-7.7-.4-7.9z" class="S" style="fill: rgb(50, 50, 50);"/>
  <g class="T">
    <path d="M222.2 134s1.8-13.3 10.7-22.3c17-17.2 31.4-16.2 31.4-16.2s-.1-2.4-5.5-4.3c-5.1-1.7-7.4-.8-7.4-.8s-14 1.2-25.8 14.2c-11.8 13.1-13.1 29.7-13.1 29.7l9.7-.3h0z"/>
    <path d="M220.9 132.4c-11.1-1.9-17.3 6.8-17.8 15.6s5.9 15.5 14.4 14.8c19.3-1.5 17.1-28.1 3.4-30.4h0z"/>
  </g>
  <path d="M215.4 154.3c-2.9 0-5.4-1.5-6.8-4.1-1.5-2.8-1.4-6.2.3-8.7.1-.2.4-.2.6-.1s.2.4.1.6c-1.5 2.3-1.7 5.3-.3 7.9 1.3 2.4 3.6 3.7 6.3 3.6 2.5-.1 4.7-1.2 6.1-3.3 1.6-2.3 1.9-5.6.9-8.2s-3.7-4.4-6.2-4.1c-.2 0-.4-.1-.5-.4 0-.2.1-.4.4-.5 2.9-.4 6 1.6 7.1 4.6 1.1 2.9.7 6.4-1 9-1.5 2.3-3.9 3.6-6.7 3.6-.1 0-.2 0-.3.1h0z" fill="#818fb3"/>
  <path d="M207.3 190.5s-33.7 8.3-45.5 21.7-17.3 79.5-17.6 91.8c-.2 12.2 8.3 17.3 13.4 20.8s27.5 9.7 45.5 10.6 35.1 0 35.1 0-.1-3.9 2.7-9.7c2.6-5.4 5.8-6.5 5.8-6.5l-15.5-5.5s-2.7-48.6-6.9-72.1c-4.7-27-17-51.1-17-51.1h0z" class="S" style="fill: rgb(221, 208, 200);"/>
  <g fill="#8593b6">
    <path d="M263.2 305.9h-.2c-.3-.1-.4-.5-.3-.7 3.2-7.1 6.4-21.1 8.3-31l.2-.8c.6-2.9 1.3-6.5-.1-9-.7-1.3-2.3-4-3.8-6.7l-3.5-6.1c-.8-1.5 1.7-5.5 5.5-11.1 1-1.5 1.9-2.8 2.4-3.7 1.3-2.3.4-4.4-.6-6.8l-.3-.8c-.9-2.3-2-4.5-3-6.7l-1.2-2.7c-.5-1.2-1.1-2.4-1.6-3.6-3.3-7.3-6.6-14.8-11-22.1-.2-.3-.1-.6.2-.8s.6-.1.8.2c4.4 7.3 7.7 14.9 11 22.2.6 1.2 1.1 2.4 1.6 3.6l1.2 2.7c1 2.2 2.1 4.5 3 6.8l.3.8c1 2.5 2.1 5 .5 7.8-.5.9-1.4 2.2-2.4 3.7-1.9 2.9-6 8.9-5.4 9.9.4.8 1.9 3.3 3.5 6.1l3.8 6.7c1.6 2.8.8 6.7.3 9.7l-.2.8c-.7 3.6-4.2 21.9-8.4 31.2-.1.3-.3.4-.6.4h0zm-32.9 2c-.2 0-.3-.1-.4-.2-2.6-2.6-15.3-24.6-16.2-28.7-.5-2.3.8-8 2-13.5 1-4.3 2-8.7 1.7-9.9-.4-1.8-3.7-4.4-6.8-7-3.8-3.1-7.7-6.3-8.5-9.2-.9-3.3-.1-23.8.4-37.3l.3-10.1c0-.3.2-.6.6-.6.3 0 .6.2.6.6 0 1.4-.1 5.3-.3 10.1-.5 12.7-1.2 33.9-.4 37 .7 2.5 4.6 5.7 8.1 8.6 3.4 2.8 6.7 5.4 7.2 7.6.3 1.5-.6 5.6-1.7 10.4-1.2 5.2-2.5 11-2 13 .9 4 13.4 25.6 15.9 28.2a.61.61 0 0 1 0 .8c-.2.2-.4.2-.5.2h0zm-45.4-9.6s-.1 0 0 0c-.4 0-.6-.3-.6-.6.4-2.9 6.8-60.8 7.1-65.2 0-.3.3-.5.6-.5s.5.3.5.6c-.3 4.4-6.7 62.4-7.1 65.3 0 .2-.2.4-.5.4z" style="fill: rgb(0, 0, 0);"/>
    <path d="M230.9 314h-.2c-1.4-.6-7.7-2.7-15.6-5.4-16-5.4-38-12.8-42.2-15-.3-.1-.4-.5-.2-.8.1-.3.5-.4.8-.2 4.1 2.1 26.9 9.8 42 14.9l15.7 5.4c.3.1.4.4.3.7-.2.3-.4.4-.6.4zm-7.7 23.1c-14.1 0-41.5-2.5-62.3-9.9-.3-.1-.4-.4-.3-.7s.4-.4.7-.3c26.3 9.3 63 10.9 69.8 9.3.3-.1.6.1.7.4s-.1.6-.4.7c-1.5.3-4.4.5-8.2.5z" style="fill: rgb(221, 208, 200);"/>
  </g>
  <g fill="#4379ff">
    <path d="M61.6 198.3c4.4 3.9 9.9 6.3 13.8 10.8 1.5 1.8 2.9 3.6 4.3 5.5 1 1.3 3.8 3.6 4.2 5.2.2.7.2-.3 0-1v-.1c-.4-3.4-.7-6.8-.8-10.3-.1-3.4.1-6.8-.1-10.3-.3-4.8-1.8-9.5-5.7-12.5-1.9-1.5-4.4-2.4-6.2-4-1.7-1.6-1-3.3 0-5.1.9-1.6 2-3.2 2.4-5.1.4-2.1-.4-4.3-1.5-6.1-2.3-3.8-7.4-8.1-12.2-7.6-4 .5-4.5 5.1-4.4 8.3.1 3.1.4 6.3.4 9.4 0 3.2-.5 6.4-.6 9.6-.1 5.6 2.4 9.8 6.4 13.3h0zm40.7 50c1.2-2.9 2.6-5.6 4.3-8.3 2.4-3.6 5-7.2 6.6-11.2 1.6-4.2 1.4-8.6 1.5-13 .1-3.2 1.1-6.4.8-9.6-.1-1.5-1-4-3-3.8-1.6.2-2.5 2.1-3.1 3.4-1 2.1-1.8 4.4-2.5 6.7-.3.9-.6 1.8-1 2.6-.2.5-.9 1.7-1.6 1.5-1.1-.3-.1-4.9.1-5.7.8-4.1 2.1-8 2.3-12.2.3-6.2-.2-13.5-6.2-16.8-1.6-.9-3.6-1.4-5.1-.1s-1.9 3.5-2.1 5.4c-.7 5.7.7 11.1 2.5 16.4 1.5 4.4 3.3 9 3.4 13.7.1 4.5-2.2 8.6-3.3 12.9-1.8 6.8-1.4 10.5-1.4 12.7a115.08 115.08 0 0 0 .3 8.3l.7 7.6c.1.5.1 1 .2 1.6-1-2.4-1.3-5.1-2.1-7.4-1.4-4.2-3.1-8.3-4.5-12.5-1.1-3.5-2.2-7-3.7-10.4-1.4-3.1-3.1-6.5-5.8-8.8-1.6-1.4-3.5-2.2-5.7-2.2-1.4 0-2.6.5-3.9.8-1.6.4-2.9.3-4.2-.7-4.3-3.3-5.6-9.3-8.8-13.5-2.4-3.1-8-8.5-12.2-5.1-2.2 1.8-2.8 5.3-2.7 8 .1 3.4 1.6 6.4 3.4 9.3 1.9 3 4.3 5.7 6 8.8 1 1.8 1.2 3.6 1 5.6-.2 1.9-.3 3.8.3 5.7 2 5.6 8.2 4.8 13 5 3.4.1 7 .6 10.2 1.7 3.7 1.2 6.1 3.6 7.4 7.3 1 2.6 1.5 5.6 3.3 7.9.8 1.1 2 1.8 3.2 2.4 1.9.8 7.6 1.2 7.6.7.1-1.7 1-3.6 1.5-5.2.9-3.4 2.1-6.5 3.3-9.5h0zm26.5-1c-.5-3.2-.4-6.7-1.9-9.7-.1-.2-.4-.3-.6-.2-1.1.6-1.1 2.4-1.2 3.4-.1 1.8 0 3.6-.3 5.3-.4 3.1-1.1 6.3-2.2 9.3-1.3 3.3-3.6 5.2-7 6.3-2.2.7-4.3 1.2-6.1 2.7-1.6 1.3-2.7 3.1-3.6 4.9-2.2 5-3.3 10.7-4.4 16-.7 3.6-1.3 7.3-2.2 10.8-.9 3.6-1.8 7.1-2.3 10.8l-.3.6c-.2.5.6.8.9.4 3.5-5.3 7.7-10.1 13.5-13.1 2.6-1.3 6.1-1.6 8.2-3.7 1.7-1.6 1.9-4 1.6-6.2-.3-2.8-1.7-5.2-3.1-7.6-.8-1.3-1.7-2.8-1.4-4.4.3-1.5 1.6-2.6 2.8-3.4 2.4-1.5 5.2-2.2 7.2-4.3 1.8-2 2.8-4.5 3-7.2.6-3.3 0-7.2-.6-10.7h0z" style="fill: rgb(221, 208, 200);"/>
    <path d="M81.5 265.7c-3.1-3.9-6.8-7.3-10.9-10.1-2.2-1.5-7.5-4.4-8.5 0-.6 2.5 1.9 5.1 3.5 6.7 2.5 2.4 5.3 4.5 7.4 7.2-2.6.8-5.3 1-7.5 2.8-2.7 2.1-3.8 6.2-1.2 8.8 1.3 1.3 3 2 4.6 2.8 2.1 1 4.2 1.9 6.3 2.8 4.6 1.9 9.2 3.9 13.1 7 4 3.2 7.7 8.6 8.1 13.8 0 .5-.2 0 .1-.2.2.1.7-.1.7-.4-.1-7.7-1.5-15.1-4.6-22.2-3-6.6-6.7-13.3-11.1-19h0z" style="fill: rgb(221, 208, 200);"/>
  </g>
  <g fill="#43588e">
    <path d="M70.9 193.6c1.7 3.5 3.5 6.9 5.3 10.4 1.8 3.3 3.6 6.6 5 10.1l5.2 12.9c1.8 4.5 3.5 9 4.8 13.6 2.6 9 4.5 18.4 5.4 27.7.5 4.8.7 9.5.6 14.3-.1 3.7-.5 7.4-.9 11.1-.4 3.9-.6 7.8-.3 11.7.3 3.2.8 7.1 3.3 9.4.5.5 1.2-.1.9-.7-3-6.1-2.8-12.8-2.3-19.5.3-3.7.8-7.3.9-11 .2-4.7 0-9.4-.5-14.1-.9-9.2-2.7-18.3-5.1-27.2-1.2-4.6-2.7-9-4.5-13.4-1.7-4.4-3.8-8.7-5.4-13.1-3.1-8-7.7-15.1-11.8-22.6-.2-.3-.8 0-.6.4h0 0z" style="fill: rgb(50, 50, 50);"/>
    <path d="M96.7 259.1c.5-5.8 1-11.4 3-17 .9-2.6 2-5.1 2.9-7.7.7-2.2 1.8-5.1 1.3-7.4-.1-.3-.4-.2-.5 0-.4 1.3-.3 2.7-.6 4.1-.3 1.3-.6 2.6-1 3.9-.9 2.7-2 5.3-3 7.9-1.9 5.1-2.9 10.8-2.4 16.3-.1.1.3.1.3-.1zm-33.8-33.5c2.3 5.6 9.3 5.9 14.3 7.2 3.6.9 6.3 3.3 8.2 6.4 2.1 3.4 3.5 7.5 4.7 11.3h.1c-1.4-6.7-3.4-14.8-10.4-17.9-5.5-2.5-12.8-1.2-16.4-7.2-.1-.4-.6-.2-.5.2h0 0zM93 258.2c.3.4.5.8.8 1.1.1.2.3.4.5.5s.4.3.6.3c.1 0 .2-.1.1-.2-.1-.2-.3-.3-.5-.4s-.3-.3-.5-.4c-.3-.3-.6-.6-.9-1 0-.1-.1 0-.1.1h0zm-14.5 17.7c4 3.3 7.7 7.2 10.6 11.4 1.4 2 2.7 4.2 3.9 6.4 1.3 2.4 2.1 4.9 3.1 7.4.1.2.4.2.4-.1-.6-5.3-3.9-9.8-6.6-14.1-1.4-2.3-3.1-4.1-5-6-1.9-2-3.9-3.8-6.1-5.4-.2-.2-.5.2-.3.4h0 0zm31.8-6.1c-1.9 1.1-2 4.1-2 6.1-.1 3.7.9 7.2-.8 10.8-1.5 3.2-3.8 5.9-5.7 8.9-1.7 2.8-3.4 6.4-3.4 9.7 0 .2.3.3.4.1.7-1.5 1-3.3 1.5-4.9.6-1.8 1.4-3.4 2.4-5 1.8-2.8 4-5.3 5.4-8.3 1.5-3.1 1.3-6.2 1.2-9.6-.1-2.2-.3-5.6 1.5-7.3.2-.3-.1-.7-.5-.5h0 0z" style="fill: rgb(50, 50, 50);"/>
  </g>
  <path d="M97.5 305.5l-22.5-.2 3.7 27.1c.8 6.1 6 10.6 12.2 10.6h6.4.6 6.4c6.2 0 11.4-4.6 12.2-10.6l3.7-27.1-22.7.2h0z" class="T"/>
  <path d="M471.8 255.7l-44.2 87.5-128.8.9 39.8-89.6 133.2 1.2z" fill="#f6f7fa"/>
  <path d="M213.3 343.6v-7h83.4l38.4-84.1h133.4l3.4 3.2H341.6l-39.9 87.8c0 0-88.4-.1-88.4.1h0zM404.9 304c-1.5 4.4-9.4 7.7-17.6 7.5-8.3-.2-13.8-3.9-12.4-8.3s9.4-7.7 17.6-7.5c8.4.2 13.9 3.9 12.4 8.3z" class="U"/>
  <path d="M301.7 344.1c-.1 0-.2 0-.2-.1-.3-.1-.4-.5-.3-.7l40-88.2h130.6c.3 0 .6.2.6.6 0 .3-.2.6-.6.6H341.9l-39.7 87.5a.55.55 0 0 1-.5.3h0z" class="T"/>
  <path d="M54.3 350.2h153.2v34H54.3v-34z" style="fill: rgb(197, 187, 181);"/>
  <path d="M206.7 350.2h275.7v34H206.7v-34z" style="fill: rgb(221, 208, 200);"/>
  <path d="M207.5 350.2h-.8H54.3v6.3h152.4.8 274.9v-6.3H207.5z" style="fill: rgba(236, 222, 213, 0.54);"/>
  <path d="M46.9 343.5h167.3v8.3H46.9v-8.3z" style="fill: rgb(197, 187, 181);"/>
  <path d="M 213.4 343.5 L 489.1 343.5 L 489.1 351.8 L 448.176 351.8 L 213.4 351.8 L 213.4 343.5 Z" style="fill: rgb(221, 208, 200);"/>
  <g class="T">
    <path d="M169.5 165.3h-55.4c-3 0-5.4-2.4-5.4-5.4v-28.3c0-3 2.4-5.4 5.4-5.4h55.4c3 0 5.4 2.4 5.4 5.4v28.3c0 2.9-2.4 5.4-5.4 5.4z"/>
    <path d="M190.3 145.7l-20.3-8.6v17.2l20.3-8.6z"/>
  </g>
  <g class="U">
    <circle cx="129" cy="145.7" r="3.7"/>
    <circle cx="141.8" cy="145.7" r="3.7"/>
    <circle cx="154.6" cy="145.7" r="3.7"/>
  </g>
  <path d="M444.3 43.1H319.4c-8 0-14.5 6.5-14.5 14.5v59.2c0 8 6.5 14.5 14.5 14.5h11.2c.3 5.4-.5 13.4-4.9 23.6 14.4-6.7 22.7-16.6 27.1-23.6h91.6c8 0 14.5-6.5 14.5-14.5V57.6c-.1-8-6.6-14.5-14.6-14.5h0z" style="fill: rgb(221, 208, 200);"/>
  <g class="T">
    <path d="M391 71.3h-62a3.12 3.12 0 0 1-3.1-3.1h0a3.12 3.12 0 0 1 3.1-3.1h62a3.12 3.12 0 0 1 3.1 3.1h0a3.12 3.12 0 0 1-3.1 3.1z"/>
    <path d="M435.4 89.2H327.8c-1 0-1.9-.8-1.9-1.9h0c0-1 .8-1.9 1.9-1.9h107.6c1 0 1.9.8 1.9 1.9h0c0 1.1-.9 1.9-1.9 1.9z" transform="matrix(1, 0, 0, 1, 0, 0)"/>
    <path d="M435.4 89.2H327.8c-1 0-1.9-.8-1.9-1.9h0c0-1 .8-1.9 1.9-1.9h107.6c1 0 1.9.8 1.9 1.9h0c0 1.1-.9 1.9-1.9 1.9z" transform="matrix(1, 0, 0, 1, 0, 10.5)"/>
    <path d="M411.9 110.9h-84.1c-1 0-1.9-.8-1.9-1.9h0c0-1 .8-1.9 1.9-1.9h84.1c1 0 1.9.8 1.9 1.9h0c0 1.1-.8 1.9-1.9 1.9zm22.6-39.6H405a3.12 3.12 0 0 1-3.1-3.1h0a3.12 3.12 0 0 1 3.1-3.1h29.5a3.12 3.12 0 0 1 3.1 3.1h0a3.12 3.12 0 0 1-3.1 3.1zm-74.2 136.2h-34c-1.1 0-2-.9-2-2v-23.4c0-1.1.9-2 2-2h34c1.1 0 2 .9 2 2v23.4c0 1.1-.8 2-1.9 2h-.1z"/>
  </g>
  <g class="U">
    <path d="M343.5 197.9c-.2 0-.4-.1-.5-.2l-18.3-15.1c-.4-.3-.4-.8-.1-1.2s.8-.4 1.2-.1l17.7 14.6 17.3-15c.3-.3.9-.3 1.2.1.3.3.3.9-.1 1.2l-17.8 15.5c-.2.2-.4.2-.6.2h0z"/>
    <path d="M325.3 206.9c-.2 0-.4-.1-.6-.2-.3-.3-.3-.8 0-1.2l12.8-13.4c.3-.3.8-.3 1.2 0 .3.3.3.8 0 1.2l-12.8 13.4c-.2.1-.4.2-.6.2zm36-.5c-.2 0-.4-.1-.6-.2L348 193.4c-.3-.3-.3-.9 0-1.2s.9-.3 1.2 0l12.7 12.8c.3.3.3.9 0 1.2-.1.1-.4.2-.6.2h0z"/>
  </g>
  <path d="M477.1 175.2h-66.4c-2.2 0-4-1.8-4-4V160c0-2.2 1.8-4 4-4h66.4c2.2 0 4 1.8 4 4v11.2c0 2.2-1.8 4-4 4z" class="S" style="fill: rgb(221, 208, 200);"/>
  <g class="T">
    <path d="M415.9 170.6c-.3 0-.5-.1-.7-.3s-.3-.5-.2-.8l.3-2.5v-.1h-.2l-2 1.5c-.3.2-.5.3-.8.2s-.5-.2-.7-.5-.2-.6-.1-.9.3-.4.6-.5l2.3-1c.1 0 .1-.1.1-.1s0-.1-.1-.1l-2.3-1a.9.9 0 0 1-.6-.6c-.1-.3-.1-.6.1-.8.2-.3.4-.4.7-.5s.5 0 .8.2l2 1.5c.1 0 .1.1.2 0 0 0 .1-.1 0-.1l-.3-2.5c0-.3.1-.6.3-.8s.4-.3.8-.3c.3 0 .5.1.7.3s.3.5.2.8l-.3 2.5v.1h.2l2-1.5c.3-.2.5-.3.8-.2s.5.2.6.5c.2.3.2.6.1.9s-.3.4-.6.5l-2.3 1c-.1 0-.1.1-.1.1s0 .1.1.1l2.3 1a.9.9 0 0 1 .6.6c.1.3.1.6-.1.8-.1.3-.4.4-.6.5-.3.1-.6 0-.8-.2l-2-1.5c-.1 0-.1-.1-.2 0 0 0-.1.1 0 .1l.3 2.5c0 .3 0 .6-.2.8-.4.2-.6.3-.9.3h0z" transform="matrix(1, 0, 0, 1, 0, 0)"/>
    <path d="M429.4 170.6c-.3 0-.5-.1-.7-.3s-.3-.5-.2-.8l.3-2.5v-.1h-.2l-2 1.5c-.3.2-.5.3-.8.2s-.5-.2-.7-.5-.2-.6-.1-.9.3-.4.6-.5l2.3-1c.1 0 .1-.1.1-.1s0-.1-.1-.1l-2.3-1a.9.9 0 0 1-.6-.6c-.1-.3-.1-.6.1-.8.2-.3.4-.4.7-.5s.5 0 .8.2l2 1.5c.1 0 .1.1.2 0 0 0 .1-.1 0-.1l-.3-2.5c0-.3.1-.6.3-.8s.4-.3.8-.3c.3 0 .5.1.7.3s.3.5.2.8l-.3 2.5v.1h.2l2-1.5c.3-.2.5-.3.8-.2s.5.2.6.5c.2.3.2.6.1.9s-.3.4-.6.5l-2.3 1c-.1 0-.1.1-.1.1s0 .1.1.1l2.3 1a.9.9 0 0 1 .6.6c.1.3.1.6-.1.8-.1.3-.4.4-.6.5-.3.1-.6 0-.8-.2l-2-1.5c-.1 0-.1-.1-.2 0 0 0-.1.1 0 .1l.3 2.5c0 .3 0 .6-.2.8-.3.2-.6.3-.9.3h0z" transform="matrix(1, 0, 0, 1, 0, 0)"/>
    <path d="M415.9 170.6c-.3 0-.5-.1-.7-.3s-.3-.5-.2-.8l.3-2.5v-.1h-.2l-2 1.5c-.3.2-.5.3-.8.2s-.5-.2-.7-.5-.2-.6-.1-.9.3-.4.6-.5l2.3-1c.1 0 .1-.1.1-.1s0-.1-.1-.1l-2.3-1a.9.9 0 0 1-.6-.6c-.1-.3-.1-.6.1-.8.2-.3.4-.4.7-.5s.5 0 .8.2l2 1.5c.1 0 .1.1.2 0 0 0 .1-.1 0-.1l-.3-2.5c0-.3.1-.6.3-.8s.4-.3.8-.3c.3 0 .5.1.7.3s.3.5.2.8l-.3 2.5v.1h.2l2-1.5c.3-.2.5-.3.8-.2s.5.2.6.5c.2.3.2.6.1.9s-.3.4-.6.5l-2.3 1c-.1 0-.1.1-.1.1s0 .1.1.1l2.3 1a.9.9 0 0 1 .6.6c.1.3.1.6-.1.8-.1.3-.4.4-.6.5-.3.1-.6 0-.8-.2l-2-1.5c-.1 0-.1-.1-.2 0 0 0-.1.1 0 .1l.3 2.5c0 .3 0 .6-.2.8-.4.2-.6.3-.9.3h0z" transform="matrix(1, 0, 0, 1, 27.100000381469727, 0)"/>
    <path d="M429.4 170.6c-.3 0-.5-.1-.7-.3s-.3-.5-.2-.8l.3-2.5v-.1h-.2l-2 1.5c-.3.2-.5.3-.8.2s-.5-.2-.7-.5-.2-.6-.1-.9.3-.4.6-.5l2.3-1c.1 0 .1-.1.1-.1s0-.1-.1-.1l-2.3-1a.9.9 0 0 1-.6-.6c-.1-.3-.1-.6.1-.8.2-.3.4-.4.7-.5s.5 0 .8.2l2 1.5c.1 0 .1.1.2 0 0 0 .1-.1 0-.1l-.3-2.5c0-.3.1-.6.3-.8s.4-.3.8-.3c.3 0 .5.1.7.3s.3.5.2.8l-.3 2.5v.1h.2l2-1.5c.3-.2.5-.3.8-.2s.5.2.6.5c.2.3.2.6.1.9s-.3.4-.6.5l-2.3 1c-.1 0-.1.1-.1.1s0 .1.1.1l2.3 1a.9.9 0 0 1 .6.6c.1.3.1.6-.1.8-.1.3-.4.4-.6.5-.3.1-.6 0-.8-.2l-2-1.5c-.1 0-.1-.1-.2 0 0 0-.1.1 0 .1l.3 2.5c0 .3 0 .6-.2.8-.3.2-.6.3-.9.3h0z" transform="matrix(1, 0, 0, 1, 27.100000381469727, 0)"/>
  </g>
  <path d="M415.9 170.6c-.3 0-.5-.1-.7-.3s-.3-.5-.2-.8l.3-2.5v-.1h-.2l-2 1.5c-.3.2-.5.3-.8.2s-.5-.2-.7-.5-.2-.6-.1-.9.3-.4.6-.5l2.3-1c.1 0 .1-.1.1-.1s0-.1-.1-.1l-2.3-1a.9.9 0 0 1-.6-.6c-.1-.3-.1-.6.1-.8.2-.3.4-.4.7-.5s.5 0 .8.2l2 1.5c.1 0 .1.1.2 0 0 0 .1-.1 0-.1l-.3-2.5c0-.3.1-.6.3-.8s.4-.3.8-.3c.3 0 .5.1.7.3s.3.5.2.8l-.3 2.5v.1h.2l2-1.5c.3-.2.5-.3.8-.2s.5.2.6.5c.2.3.2.6.1.9s-.3.4-.6.5l-2.3 1c-.1 0-.1.1-.1.1s0 .1.1.1l2.3 1a.9.9 0 0 1 .6.6c.1.3.1.6-.1.8-.1.3-.4.4-.6.5-.3.1-.6 0-.8-.2l-2-1.5c-.1 0-.1-.1-.2 0 0 0-.1.1 0 .1l.3 2.5c0 .3 0 .6-.2.8-.4.2-.6.3-.9.3h0z" transform="matrix(1, 0, 0, 1, 54.200001, 0)" style="fill: rgb(50, 50, 50);"/>
</svg>